<svg xmlns="http://www.w3.org/2000/svg" width="32" height="32" viewBox="0 0 32 32" fill="none"><path d="M16 28C15.7756 27.9995 15.5515 27.9848 15.329 27.956C13.2739 24.6629 12.1359 20.8804 12.033 17H29.95C29.974 16.668 30 16.337 30 16C30 13.2311 29.1789 10.5243 27.6406 8.22202C26.1022 5.91973 23.9157 4.12532 21.3576 3.06569C18.7994 2.00607 15.9845 1.72882 13.2687 2.26901C10.553 2.80921 8.05845 4.14258 6.10051 6.10051C4.14258 8.05845 2.80921 10.553 2.26901 13.2687C1.72882 15.9845 2.00607 18.7994 3.06569 21.3576C4.12532 23.9157 5.91973 26.1022 8.22202 27.6406C10.5243 29.1789 13.2311 30 16 30V28ZM27.95 15H21.963C21.8555 11.3203 20.9141 7.71305 19.21 4.45001C21.5684 5.10813 23.6694 6.47129 25.2315 8.35685C26.7936 10.2424 27.7421 12.5603 27.95 15ZM16.67 4.04401C18.7255 7.33703 19.8638 11.1195 19.967 15H12.033C12.1362 11.1195 13.2745 7.33703 15.33 4.04401C15.7754 3.98558 16.2266 3.98558 16.672 4.04401H16.67ZM12.789 4.44901C11.0852 7.71248 10.1442 11.3201 10.037 15H4.05001C4.25806 12.5603 5.20663 10.2425 6.76868 8.35699C8.33072 6.47145 10.4316 5.10826 12.79 4.45001L12.789 4.44901ZM4.05001 17H10.037C10.1447 20.6797 11.086 24.2869 12.79 27.55C10.4316 26.8918 8.33072 25.5286 6.76868 23.643C5.20663 21.7575 4.25806 19.4397 4.05001 17Z" fill="#2D3439"></path><path fill-rule="evenodd" clip-rule="evenodd" d="M25 25L30 27V25L25 22.5V20C25 19.7348 24.8946 19.4804 24.7071 19.2929C24.5196 19.1054 24.2652 19 24 19C23.7348 19 23.4804 19.1054 23.2929 19.2929C23.1054 19.4804 23 19.7348 23 20V22.5L18 25V27L23 25V28.5L21 30V31L24 30L27 31V30L25 28.5V25Z" fill="#2D3439"></path></svg>