<svg xmlns="http://www.w3.org/2000/svg" width="84" height="84" viewBox="0 0 84 84" fill="none"><circle cx="42" cy="42" r="42" fill="white"></circle><path d="M56.8999 47.825C57.702 45.8771 58.1374 43.7917 58.1374 41.5C58.1374 39.85 57.8853 38.2688 57.4499 36.8021C55.9603 37.1458 54.402 37.3292 52.7749 37.3292C49.4428 37.3328 46.1586 36.5352 43.1993 35.0036C40.2399 33.4721 37.6922 31.2516 35.7708 28.5292C33.7153 33.5025 29.8379 37.5029 24.9312 39.7125C24.8395 40.2854 24.8395 40.9042 24.8395 41.5C24.8395 43.6879 25.2704 45.8543 26.1077 47.8757C26.945 49.897 28.1722 51.7336 29.7192 53.2807C32.8437 56.4051 37.0813 58.1604 41.4999 58.1604C43.9062 58.1604 46.2208 57.6333 48.3062 56.6938C49.6124 59.1917 50.2083 60.4292 50.1624 60.4292C46.4041 61.6896 43.4937 62.3083 41.4999 62.3083C35.9541 62.3083 30.6603 60.1313 26.7645 56.2125C24.3949 53.8502 22.6335 50.9486 21.6312 47.7563H18.5833V37.3292H21.0812C21.838 33.6454 23.5779 30.2351 26.1164 27.4603C28.6549 24.6855 31.8972 22.6497 35.4993 21.5688C39.1013 20.488 42.9289 20.4024 46.5756 21.3212C50.2224 22.24 53.5525 24.1289 56.2124 26.7875C59.1004 29.6641 61.0703 33.3327 61.8728 37.3292H64.4166V47.7563H64.2791L56.1208 55.25L43.9749 53.875V50.0479H55.0437L56.8999 47.825ZM35.2437 40.9729C35.9312 40.9729 36.5958 41.2479 37.077 41.7521C37.5606 42.2397 37.832 42.8986 37.832 43.5854C37.832 44.2722 37.5606 44.9312 37.077 45.4188C36.5958 45.9 35.9312 46.175 35.2437 46.175C33.7999 46.175 32.6312 45.0292 32.6312 43.5854C32.6312 42.1417 33.7999 40.9729 35.2437 40.9729ZM47.7333 40.9729C49.177 40.9729 50.3228 42.1417 50.3228 43.5854C50.3228 45.0292 49.177 46.175 47.7333 46.175C46.2895 46.175 45.1208 45.0292 45.1208 43.5854C45.1208 42.8925 45.396 42.228 45.8859 41.7381C46.3759 41.2482 47.0404 40.9729 47.7333 40.9729Z" fill="#0971CE"></path></svg>