<svg xmlns="http://www.w3.org/2000/svg" width="24" height="24" viewBox="0 0 24 24" fill="none"><path d="M11.2506 0H12.7506C12.9044 0.019375 13.0575 0.0406252 13.2113 0.0568752C15.5863 0.3125 17.7113 1.17687 19.5569 2.69187C21.8575 4.57812 23.2887 6.99562 23.8162 9.9325C23.895 10.37 23.9412 10.8075 24.0006 11.25V12.75C23.9835 12.8092 23.9705 12.8696 23.9619 12.9306C23.8538 14.3856 23.5063 15.7819 22.86 17.0881C21.0419 20.7631 18.1213 23.0194 14.09 23.8125C13.6481 23.8994 13.1975 23.9375 12.7506 24H11.2506C10.9581 23.9638 10.6644 23.9325 10.3756 23.8906C7.99313 23.5487 5.89125 22.5987 4.08813 21.005C1.99438 19.1512 0.688125 16.8456 0.1875 14.0906C0.106875 13.6469 0.0625 13.1969 0 12.75V11.25C0.03625 10.9569 0.0662503 10.6631 0.10875 10.3706C0.48375 7.76375 1.5825 5.50562 3.42438 3.62063C5.22437 1.78375 7.39625 0.63125 9.93375 0.184375C10.37 0.1075 10.8119 0.060625 11.2506 0ZM7.87563 11.5063C6.08687 9.1475 6.57875 6.17625 8.36125 4.46938C9.23118 3.62908 10.3652 3.11594 11.5707 3.01715C12.7762 2.91837 13.9786 3.24004 14.9738 3.9275C16.0063 4.64375 16.7119 5.60625 17.0469 6.81625C17.52 8.52125 17.1719 10.0844 16.13 11.4988C18.6144 12.8619 20.1569 14.9169 20.8175 17.6606C23.3844 13.8213 23.1794 7.98938 19.05 4.2275C14.9356 0.4775 8.675 0.595 4.66313 4.50812C0.735625 8.33687 0.738125 14.0469 3.19563 17.6637C3.47569 16.357 4.03962 15.1278 4.8475 14.0631C5.65389 12.9969 6.68741 12.1236 7.87313 11.5063H7.87563ZM12.0431 22.5063C12.2537 22.4931 12.5269 22.4806 12.7994 22.4594C15.2225 22.2719 17.315 21.3344 19.12 19.7156C19.3975 19.4656 19.5219 19.2294 19.4738 18.8363C19.1275 15.9988 17.6783 13.9469 15.1263 12.6806C14.9906 12.6131 14.8938 12.6262 14.7644 12.7019C12.9244 13.7773 11.0831 13.7773 9.24063 12.7019C9.18858 12.664 9.12665 12.6422 9.06239 12.6389C8.99812 12.6357 8.93431 12.6513 8.87875 12.6838C6.20333 14.0154 4.74917 16.1692 4.51625 19.145C4.5171 19.2713 4.56709 19.3924 4.65563 19.4825C6.69625 21.4594 9.14437 22.4488 12.0406 22.5088L12.0431 22.5063ZM12.0019 4.5C11.2607 4.5 10.5362 4.71963 9.91979 5.13113C9.30338 5.54264 8.82273 6.12757 8.53854 6.81207C8.25435 7.49656 8.17936 8.24992 8.32304 8.977C8.46673 9.70409 8.82264 10.3723 9.34584 10.8972C9.86903 11.4222 10.5361 11.7803 11.2627 11.9264C11.9893 12.0725 12.7429 12 13.4283 11.7181C14.1137 11.4362 14.7003 10.9575 15.1138 10.3425C15.5274 9.72743 15.7494 9.00364 15.7519 8.2625C15.7527 7.76922 15.6564 7.28061 15.4683 6.82457C15.2803 6.36853 15.0043 5.95398 14.6561 5.6046C14.3079 5.25522 13.8943 4.97785 13.4389 4.78832C12.9834 4.59879 12.4952 4.50082 12.0019 4.5Z" fill="#0971CE"></path></svg>