<svg xmlns="http://www.w3.org/2000/svg" width="24" height="24" viewBox="0 0 24 24" fill="none"><path d="M16.8229 24.0003C16.409 23.9304 15.9905 23.8778 15.581 23.7876C14.0234 23.4441 12.6005 22.7725 11.2195 22.0018C9.08471 20.8135 7.15061 19.2962 5.48837 17.5057C3.44953 15.3136 1.76309 12.8884 0.70081 10.0659C0.314757 9.03868 0.0302972 7.98736 0.0023592 6.87954C-0.0255788 5.77172 0.256342 4.7585 1.05257 3.94335C1.68753 3.29643 2.29899 2.62158 2.9822 2.02863C4.0375 1.1119 5.18676 1.11888 6.20396 2.07307C7.28339 3.08185 8.31455 4.14079 9.32032 5.22131C10.0931 6.0517 10.0823 7.2795 9.33111 8.12957C8.79775 8.73205 8.21042 9.28564 7.64658 9.85955C7.59769 9.9097 7.54181 9.95287 7.44911 10.0348C8.99522 12.7932 11.1274 14.9371 13.9066 16.4811C14.3708 16.0106 14.8089 15.5656 15.2489 15.1231C15.6083 14.7625 15.9696 14.4051 16.4642 14.2267C17.2763 13.934 18.0516 14.0312 18.6726 14.6209C19.7998 15.6917 20.8972 16.7921 21.9648 17.9222C22.3284 18.3109 22.5355 18.8202 22.5464 19.3523C22.5573 19.8844 22.3712 20.4018 22.0239 20.8051C21.3343 21.6012 20.5851 22.3497 19.8269 23.0797C19.291 23.5978 18.6097 23.8581 17.8694 23.9552C17.8167 23.9658 17.7649 23.9804 17.7144 23.999L16.8229 24.0003ZM17.1582 22.6366C18.0059 22.6392 18.6459 22.3897 19.1666 21.8418C19.6745 21.311 20.1933 20.7911 20.7063 20.2654C20.7698 20.1988 20.8333 20.1283 20.893 20.0553C21.2543 19.6046 21.2587 19.15 20.8663 18.7221C20.4536 18.2777 20.0142 17.8505 19.5844 17.4187C19.0269 16.8594 18.4726 16.2976 17.9062 15.7472C17.4922 15.3447 17.0261 15.3402 16.5867 15.7129C16.5036 15.7834 16.4267 15.8615 16.3493 15.9389C15.8146 16.4785 15.2819 17.0169 14.7409 17.5489C14.3536 17.9298 13.9237 17.999 13.4545 17.7622C13.1275 17.5965 12.7992 17.4308 12.4843 17.2435C11.0696 16.4004 9.83908 15.3333 8.72791 14.1251C7.74627 13.0579 6.84844 11.9285 6.24587 10.5947C5.92839 9.88938 5.99189 9.54466 6.54811 9.00757C7.11957 8.45208 7.69103 7.89721 8.24026 7.31886C8.62123 6.91319 8.61108 6.4853 8.25995 6.0536C8.19547 5.97483 8.12701 5.89939 8.05486 5.82759C7.17184 4.94218 6.2882 4.0572 5.40392 3.17263C4.83246 2.60126 4.33021 2.59746 3.76066 3.15867C3.21523 3.69702 2.65964 4.22585 2.14216 4.78961C1.89041 5.05449 1.68864 5.36269 1.54657 5.69935C1.26211 6.42054 1.34465 7.17729 1.49577 7.91689C1.7288 9.05582 2.16121 10.1268 2.67361 11.1648C3.57906 12.9989 4.7569 14.6482 6.12078 16.1655C8.53171 18.8484 11.3915 20.8895 14.7854 22.1471C15.5464 22.4311 16.3468 22.5958 17.1582 22.6353V22.6366Z" fill="#0971CE"></path><path d="M24.0002 10.7709C23.9945 10.776 23.9862 10.7804 23.9837 10.7868C23.8383 11.1893 23.6027 11.3855 23.2852 11.3651C22.9043 11.341 22.6782 11.122 22.5931 10.6668C22.2939 9.0012 21.6255 7.42373 20.6369 6.05015C19.3263 4.23256 17.6462 2.86446 15.5572 2.04296C14.7991 1.74521 13.9933 1.56872 13.2079 1.35287C12.7723 1.23352 12.5247 0.912915 12.6085 0.52248C12.6923 0.132045 13.053 -0.0634902 13.4974 0.018406C15.3723 0.3514 17.1489 1.09954 18.6971 2.20802C20.1662 3.25366 21.4026 4.59236 22.3284 6.13967C23.1258 7.47653 23.6761 8.94592 23.9532 10.4776C23.9658 10.5301 23.9815 10.5819 24.0002 10.6325V10.7709Z" fill="#0971CE"></path><path d="M13.1409 4.31934C13.5219 4.4171 13.9619 4.49265 14.3766 4.64565C17.2449 5.70374 18.9931 7.73273 19.6213 10.7326C19.6609 10.9066 19.6311 11.0891 19.5381 11.2414C19.4451 11.3936 19.2963 11.5036 19.1235 11.5478C18.7755 11.6417 18.4168 11.4392 18.298 11.0704C18.131 10.5434 18.0301 9.99112 17.8021 9.49022C16.8586 7.42377 15.2541 6.16359 13.0254 5.70395C12.6444 5.62459 12.4247 5.40303 12.405 5.07672C12.3901 4.92367 12.4285 4.77016 12.5138 4.64219C12.599 4.51423 12.726 4.41968 12.873 4.37457C12.9441 4.35552 13.0114 4.34854 13.1409 4.31934Z" fill="#0971CE"></path></svg>