<svg xmlns="http://www.w3.org/2000/svg" width="95" height="100" viewBox="0 0 95 100" fill="none"><path d="M88.6959 100H67.3035V96.8108H66.078C49.7739 96.8108 33.469 96.8108 17.1632 96.8108C13.0221 96.8108 9.92008 94.0706 9.27669 89.8595C9.20944 89.3247 9.18212 88.7853 9.19499 88.246C9.19499 83.7418 9.17968 79.2376 9.19499 74.7361C9.19499 74.123 8.99841 73.8164 8.5414 73.4561C7.94986 73.0106 7.45904 72.4331 7.10401 71.7646C4.78579 66.9835 2.50842 62.1754 0.264246 57.3646C0.0911105 56.9723 0.00385905 56.5441 0.00893584 56.1115C-0.00297861 40.7228 -0.00297861 25.3314 0.00893584 9.93726C0.00893584 4.2122 3.99944 0.019924 9.42222 0.00647859C10.852 0.00647859 12.3021 -0.0499922 13.7089 0.170513C16.8619 0.667993 19.1214 2.55842 20.4975 5.57557C20.8014 6.23708 21.1103 6.47641 21.8354 6.47372C40.4322 6.44683 59.0289 6.44056 77.6257 6.4549C81.7872 6.4549 84.8739 9.1628 85.5403 13.382C85.6153 13.9809 85.6443 14.5852 85.6271 15.189C85.6271 25.1709 85.6271 35.1519 85.6271 45.132C85.6086 45.4436 85.6571 45.7555 85.7689 46.0447C85.8808 46.3338 86.0531 46.5926 86.273 46.8019C87.4296 47.9582 88.5376 49.1629 89.6584 50.3569C93.7715 54.7374 95.4642 59.9945 94.5834 66.0826C93.7893 71.5576 93.003 77.0433 91.8975 82.4511C91.2745 85.5059 90.0005 88.4128 89.0508 91.3976C88.8527 91.9917 88.7392 92.6133 88.7138 93.2423C88.6729 95.4608 88.6959 97.6847 88.6959 100ZM76.4359 22.6593H21.4269V50.2681C21.4269 52.4543 21.7639 54.7239 21.3094 56.7972C20.855 58.8705 19.5912 60.6641 18.7257 62.6083C18.5114 63.0857 18.3949 63.6051 18.3836 64.133C18.353 67.1582 18.3683 70.1835 18.3708 73.2087C18.3708 73.5314 18.3989 73.8541 18.4117 74.1606H64.4645C64.7198 70.888 64.9444 67.6745 65.1819 64.4584C65.2993 62.8853 65.3963 61.3095 65.547 59.7364C65.6562 58.4897 66.175 57.3221 67.0139 56.4351C67.8529 55.5481 68.9593 54.9971 70.1426 54.8772C71.3281 54.7639 72.5139 55.092 73.4935 55.8044C74.4731 56.5169 75.1846 57.5685 75.5041 58.7764C75.8028 59.852 76.0453 60.9518 76.3134 62.0409L76.4283 62.014L76.4359 22.6593ZM21.4473 19.3652H75.7798C78.4452 19.3652 79.5277 20.5161 79.5277 23.3531C79.5277 39.3083 79.5379 55.2689 79.5584 71.2349C79.6024 72.0608 79.8392 72.8625 80.2477 73.569C80.3987 73.7677 80.5949 73.9229 80.8181 74.0202C81.0412 74.1175 81.2842 74.1538 81.5243 74.1257C81.9404 74.0047 82.2723 73.4319 82.5583 72.9936C82.6808 72.808 82.594 72.4692 82.594 72.203C82.594 53.1159 82.594 34.0296 82.594 14.9443C82.594 11.6663 80.7047 9.68717 77.5848 9.68449H21.4473V19.3652ZM15.3199 70.2319L15.1386 70.1861C14.9123 70.7313 14.6495 71.2587 14.3523 71.7646C13.9565 72.3589 13.5455 73.0204 12.9863 73.3942C12.3736 73.803 12.2459 74.2359 12.251 74.9297C12.2766 79.3317 12.251 83.7337 12.251 88.1358C12.251 91.6316 14.0791 93.5839 17.37 93.5839H67.398C67.2524 92.8175 67.2269 92.1398 66.9997 91.5509C65.8865 88.687 64.8755 85.7909 64.5232 82.6984C64.3266 80.9801 64.2679 79.243 64.13 77.4494H62.9913C48.408 77.4494 33.8247 77.4117 19.2414 77.487C16.7394 77.5005 15.0595 76.1425 15.2943 73.249C15.3786 72.2514 15.3097 71.2403 15.3097 70.2319H15.3199ZM85.6501 50.7898V52.0375C85.6501 58.8284 85.6501 65.6183 85.6501 72.4073C85.6501 74.9915 84.4042 76.7798 82.2366 77.3257C80.1813 77.8447 78.1516 76.8228 77.2376 74.486C75.9815 71.2591 74.8837 67.9784 73.819 64.6816C73.3084 63.1004 73.0531 61.4305 72.6318 59.809C72.3382 58.6634 71.4574 58.0046 70.454 58.1014C69.4507 58.1982 68.7562 58.9485 68.6005 60.0752C68.5341 60.5754 68.4984 61.0782 68.4626 61.5811C68.1614 65.6658 67.952 69.764 67.5409 73.8379C66.9997 79.2887 67.4107 84.5701 69.6039 89.5986C69.7417 89.9159 70.1298 90.322 70.4055 90.3247C75.4683 90.3677 80.5337 90.3623 85.5965 90.3381C85.738 90.3263 85.875 90.2797 85.9964 90.2022C86.1179 90.1247 86.2205 90.0184 86.296 89.8917C87.1947 87.3129 88.3104 84.7825 88.8491 82.1149C89.8167 77.4278 90.4167 72.6601 91.2005 67.93C91.6243 65.3754 91.9894 62.8369 91.4813 60.2339C90.718 56.3481 88.558 53.4439 85.6399 50.7898H85.6501ZM18.3683 12.8737C18.3683 11.6179 18.4091 10.4751 18.3683 9.33759C18.2483 6.47103 16.2952 3.88145 13.5991 3.46464C11.7131 3.19842 9.80186 3.19842 7.91589 3.46464C5.81724 3.73355 4.38495 5.21792 3.5603 7.26431C2.82756 9.08482 3.13648 10.9968 3.12372 12.8818L18.3683 12.8737ZM6.12105 16.2055H3.14415V54.7804H6.12105V16.2055ZM9.26138 16.1867V54.7804H12.2076V16.184L9.26138 16.1867ZM15.376 16.1867V54.7804H18.3351V16.1867H15.376ZM4.03773 58.1202C5.93979 62.1404 7.75249 66.0154 9.6188 69.8608C9.83581 70.3072 10.3515 70.8746 10.7243 70.8719C11.097 70.8692 11.6051 70.2964 11.8221 69.8473C13.5787 66.2386 15.2841 62.6029 16.9998 58.9727C17.1224 58.7038 17.2092 58.4349 17.3317 58.1202H4.03773ZM70.3902 93.6161V96.7489H85.5658V93.6215L70.3902 93.6161Z" fill="#0971CE"></path><path d="M33.6538 40.3695C33.6538 37.4464 33.6538 34.5234 33.6538 31.6004C33.6717 27.0746 37.6647 24.4635 41.4433 26.5718C47.2593 29.8202 53.0369 33.1439 58.8325 36.4353C60.2979 37.2663 61.1456 38.5409 61.1558 40.3103C61.1558 42.1254 60.2954 43.4189 58.7993 44.2686C53.0318 47.5439 47.2797 50.8461 41.4944 54.0838C37.6647 56.235 33.6691 53.6213 33.6538 49.0337C33.6538 46.1456 33.6538 43.2575 33.6538 40.3695ZM36.7175 40.2915C36.7175 43.1822 36.7175 46.073 36.7175 48.9638C36.7175 51.2495 38.2902 52.2579 40.1897 51.1823C45.8491 47.9769 51.5017 44.7545 57.1474 41.515C57.5457 41.2891 58.0589 40.7513 58.0384 40.391C58.0104 39.9553 57.5482 39.3987 57.1372 39.1621C51.5 35.9119 45.8483 32.685 40.1821 29.4814C38.2826 28.4057 36.7252 29.4195 36.7175 31.7106C36.7175 34.5799 36.7175 37.4491 36.7175 40.2915Z" fill="#0971CE"></path><path d="M62.6619 62.9285V66.1554H61.5947C54.5865 66.1554 47.5808 66.1554 40.5751 66.1393C39.8959 66.1393 39.536 66.2683 39.2372 67.0132C38.216 69.5813 36.2961 70.9715 33.6562 70.9688C31.0163 70.9662 29.1117 69.5705 28.07 67.0132C27.7943 66.3356 27.4956 66.1231 26.8317 66.1393C25.0803 66.185 23.3289 66.1554 21.5034 66.1554V62.9285C23.2191 62.9285 24.9578 62.8935 26.6964 62.9446C27.4164 62.9661 27.7994 62.794 28.0955 62.0169C28.5351 60.8346 29.3105 59.824 30.3158 59.1232C31.3211 58.4225 32.5073 58.0657 33.7123 58.1016C36.3088 58.1796 38.193 59.508 39.227 62.025C39.5104 62.7214 39.8142 62.9527 40.5342 62.9473C47.5399 62.915 54.5456 62.9285 61.5539 62.9285H62.6619ZM36.7122 64.5419C36.7071 63.6952 36.3882 62.8841 35.8236 62.2813C35.2589 61.6786 34.4931 61.3318 33.6894 61.315C32.8834 61.3085 32.1074 61.6368 31.5296 62.2287C30.9518 62.8207 30.6188 63.6286 30.6027 64.4774C30.5979 64.9053 30.6736 65.33 30.8252 65.7271C30.9768 66.1242 31.2014 66.4858 31.4861 66.7911C31.7708 67.0965 32.1099 67.3396 32.4841 67.5064C32.8583 67.6733 33.2601 67.7607 33.6664 67.7635C34.4727 67.7537 35.2433 67.412 35.8135 66.8115C36.3836 66.2109 36.7081 65.3992 36.7173 64.55L36.7122 64.5419Z" fill="#0971CE"></path><path d="M38.2649 16.0739V12.9922H56.5195V16.0739H38.2649Z" fill="#0971CE"></path><path d="M47.4073 90.3543C44.8313 90.3543 42.2526 90.3865 39.674 90.3543C38.0937 90.3257 36.5851 89.655 35.4632 88.4824C34.3414 87.3098 33.6931 85.726 33.6538 84.0618C33.6334 82.1526 34.915 80.6897 36.7175 80.687C43.8492 80.6655 50.9783 80.6655 58.1048 80.687C59.9124 80.687 61.1864 82.1633 61.1685 84.0807C61.1284 85.7439 60.4776 87.326 59.353 88.4944C58.2285 89.6628 56.7177 90.3266 55.1381 90.3462C52.5646 90.3865 49.9936 90.3543 47.4073 90.3543ZM36.7533 83.9327C36.8835 85.7667 38.0043 87.0924 39.5821 87.1059C44.8057 87.1507 50.0285 87.1507 55.2505 87.1059C55.6324 87.0981 56.0089 87.0086 56.3571 86.843C56.7053 86.6773 57.0179 86.4389 57.276 86.1422C57.534 85.8455 57.7322 85.4966 57.8584 85.1169C57.9847 84.7371 58.0364 84.3342 58.0104 83.9327H36.7533Z" fill="#0971CE"></path></svg>