<svg xmlns="http://www.w3.org/2000/svg" width="15" height="21" viewBox="0 0 15 21" fill="none"><path d="M7.81738 10.0786C7.15434 10.0786 6.51846 9.82508 6.04962 9.37373C5.58077 8.92238 5.31738 8.31022 5.31738 7.67192C5.31738 7.03362 5.58077 6.42146 6.04962 5.97011C6.51846 5.51876 7.15434 5.2652 7.81738 5.2652C8.48042 5.2652 9.11631 5.51876 9.58515 5.97011C10.054 6.42146 10.3174 7.03362 10.3174 7.67192C10.3174 7.98798 10.2527 8.30094 10.1271 8.59293C10.0014 8.88493 9.8173 9.15024 9.58515 9.37373C9.353 9.59721 9.07741 9.77449 8.77409 9.89544C8.47078 10.0164 8.14569 10.0786 7.81738 10.0786ZM7.81738 0.933105C5.96087 0.933105 4.18039 1.64309 2.86764 2.90686C1.55488 4.17063 0.817383 5.88468 0.817383 7.67192C0.817383 12.726 7.81738 20.1869 7.81738 20.1869C7.81738 20.1869 14.8174 12.726 14.8174 7.67192C14.8174 5.88468 14.0799 4.17063 12.7671 2.90686C11.4544 1.64309 9.6739 0.933105 7.81738 0.933105Z" fill="#0971CE"></path></svg>