<svg xmlns="http://www.w3.org/2000/svg" width="16" height="11" viewBox="0 0 16 11" fill="none"><path d="M13.9053 2.71609L7.90527 5.92505L1.90527 2.71609V1.43251L7.90527 4.64147L13.9053 1.43251M13.9053 0.148926H1.90527C1.07277 0.148926 0.405273 0.72012 0.405273 1.43251V9.13401C0.405273 9.47444 0.563309 9.80092 0.844613 10.0416C1.12592 10.2824 1.50745 10.4176 1.90527 10.4176H13.9053C14.3031 10.4176 14.6846 10.2824 14.9659 10.0416C15.2472 9.80092 15.4053 9.47444 15.4053 9.13401V1.43251C15.4053 1.09208 15.2472 0.765597 14.9659 0.524879C14.6846 0.28416 14.3031 0.148926 13.9053 0.148926Z" fill="#0971CE"></path></svg>