<svg xmlns="http://www.w3.org/2000/svg" width="18" height="18" viewBox="0 0 18 18" fill="none"><path d="M12.823 17.3588C12.5298 17.3112 12.2333 17.2752 11.9432 17.2138C10.8397 16.9795 9.83167 16.5214 8.85329 15.9957C7.34094 15.1853 5.97074 14.1504 4.79313 12.9292C3.34873 11.4341 2.15398 9.78002 1.40141 7.8549C1.12792 7.15431 0.926391 6.43726 0.906599 5.68167C0.886806 4.92609 1.08653 4.23502 1.65062 3.67905C2.10045 3.23782 2.53363 2.77754 3.01765 2.37312C3.76527 1.74787 4.57946 1.75263 5.30009 2.40343C6.0648 3.09147 6.79532 3.81371 7.50785 4.55068C8.05529 5.11704 8.04765 5.95446 7.5155 6.53425C7.13764 6.94517 6.72155 7.32274 6.3221 7.71418C6.28746 7.74838 6.24788 7.77783 6.1822 7.83368C7.27754 9.71507 8.78807 11.1773 10.757 12.2304C11.0858 11.9095 11.3962 11.606 11.7079 11.3042C11.9625 11.0582 12.2185 10.8145 12.5689 10.6928C13.1442 10.4932 13.6935 10.5594 14.1334 10.9617C14.932 11.692 15.7094 12.4425 16.4658 13.2133C16.7233 13.4784 16.8701 13.8258 16.8778 14.1887C16.8855 14.5516 16.7537 14.9045 16.5076 15.1795C16.0191 15.7225 15.4883 16.233 14.9512 16.731C14.5715 17.0843 14.0889 17.2618 13.5644 17.3281C13.527 17.3353 13.4903 17.3453 13.4546 17.358L12.823 17.3588ZM13.0606 16.4287C13.6611 16.4305 14.1145 16.2603 14.4834 15.8866C14.8432 15.5246 15.2107 15.17 15.5742 14.8115C15.6192 14.766 15.6642 14.7179 15.7065 14.6682C15.9624 14.3607 15.9656 14.0507 15.6876 13.7589C15.3952 13.4558 15.0839 13.1643 14.7794 12.8699C14.3844 12.4884 13.9917 12.1052 13.5905 11.7298C13.2972 11.4553 12.967 11.4523 12.6557 11.7064C12.5968 11.7545 12.5423 11.8078 12.4875 11.8606C12.1087 12.2286 11.7313 12.5958 11.348 12.9587C11.0737 13.2185 10.7691 13.2657 10.4367 13.1042C10.205 12.9911 9.97247 12.8781 9.74935 12.7504C8.74713 12.1754 7.87536 11.4475 7.08816 10.6235C6.39272 9.89563 5.75666 9.12532 5.32978 8.21559C5.10486 7.73453 5.14984 7.49941 5.54389 7.13309C5.94874 6.75422 6.35359 6.37577 6.74269 5.98131C7.01259 5.70462 7.00539 5.41278 6.75664 5.11834C6.71096 5.06462 6.66246 5.01317 6.61134 4.96419C5.98578 4.3603 5.35976 3.7567 4.7333 3.15339C4.32845 2.76369 3.97264 2.76109 3.56914 3.14386C3.18274 3.51105 2.78914 3.87173 2.42253 4.25624C2.24418 4.4369 2.10123 4.64711 2.00059 4.87673C1.79906 5.36862 1.85754 5.88475 1.9646 6.3892C2.12969 7.166 2.43602 7.89647 2.79903 8.60442C3.44049 9.85536 4.27492 10.9803 5.24116 12.0152C6.94916 13.845 8.9752 15.2371 11.3795 16.0949C11.9187 16.2886 12.4857 16.4018 13.0606 16.4287Z" fill="#0971CE"></path><path d="M17.908 8.33602C17.904 8.33948 17.8981 8.34251 17.8963 8.34684C17.7933 8.62136 17.6264 8.75516 17.4015 8.74131C17.1316 8.72485 16.9715 8.57547 16.9112 8.26501C16.6992 7.12899 16.2257 6.05307 15.5253 5.11623C14.5968 3.87655 13.4066 2.94344 11.9267 2.38314C11.3896 2.18006 10.8187 2.05968 10.2623 1.91247C9.9537 1.83106 9.77827 1.6124 9.83765 1.3461C9.89703 1.07981 10.1525 0.946443 10.4674 1.0023C11.7956 1.22942 13.0543 1.73968 14.1511 2.49572C15.1918 3.2089 16.0678 4.12195 16.7236 5.17728C17.2886 6.08909 17.6785 7.09128 17.8748 8.13597C17.8837 8.1718 17.8948 8.20708 17.908 8.24162V8.33602Z" fill="#0971CE"></path><path d="M10.2145 3.93585C10.4844 4.00253 10.7961 4.05406 11.0899 4.15841C13.1219 4.88008 14.3604 6.26395 14.8055 8.31002C14.8336 8.42865 14.8124 8.55316 14.7466 8.65701C14.6807 8.76086 14.5753 8.83585 14.4528 8.86599C14.2063 8.93007 13.9521 8.79194 13.868 8.54037C13.7497 8.18098 13.6782 7.80427 13.5167 7.46264C12.8483 6.05322 11.7115 5.19372 10.1326 4.88022C9.86275 4.8261 9.70711 4.67498 9.69316 4.45242C9.68256 4.34804 9.70977 4.24333 9.77019 4.15606C9.83061 4.06878 9.92052 4.00429 10.0247 3.97352C10.0751 3.96053 10.1227 3.95577 10.2145 3.93585Z" fill="#0971CE"></path></svg>