<svg xmlns="http://www.w3.org/2000/svg" width="24" height="24" viewBox="0 0 24 24" fill="none"><path d="M10.1284 0C10.5282 0.0587112 10.9315 0.103332 11.3272 0.18318C13.3474 0.594158 15.0722 1.54176 16.4648 3.06355C18.3147 5.08557 19.1571 7.47805 18.971 10.2105C18.8536 11.9718 18.2536 13.5723 17.2262 15.0101C17.1311 15.1434 17.0313 15.2737 16.9327 15.4058C16.9202 15.4279 16.909 15.4506 16.8992 15.4739C16.9544 15.5326 17.0166 15.5996 17.0794 15.6642C19.256 17.8408 21.4327 20.0168 23.6096 22.1923C23.919 22.5017 24.0869 22.8469 23.9542 23.2884C23.9086 23.4424 23.8262 23.5829 23.7141 23.698C23.6021 23.813 23.4638 23.8991 23.3111 23.9487C23.1584 23.9984 22.9959 24.0103 22.8376 23.9832C22.6793 23.9561 22.53 23.8909 22.4025 23.7933C22.3112 23.7208 22.2247 23.6423 22.1436 23.5585C19.9882 21.4057 17.834 19.2514 15.681 17.0955C15.6183 17.0201 15.5619 16.9396 15.5125 16.8548C15.3522 16.9722 15.2466 17.0509 15.1421 17.129C13.9315 18.0326 12.5818 18.625 11.0912 18.8598C8.08649 19.3336 5.42524 18.5663 3.15029 16.5407C1.46595 15.0442 0.477887 13.1525 0.10685 10.935C0.0622313 10.6672 0.035225 10.3966 0 10.1271V8.86011C0.0381604 8.58241 0.0686888 8.30412 0.117417 8.02818C0.50137 5.75781 1.55225 3.85498 3.28473 2.33788C4.52663 1.24279 6.03873 0.499673 7.66438 0.185528C8.06007 0.106855 8.46223 0.0610597 8.86144 0H10.1284ZM17.0043 9.51122C17.0018 7.52319 16.2117 5.61714 14.807 4.2104C13.4024 2.80366 11.4975 2.01086 9.50958 2.00558C5.3906 1.99031 2.0184 5.35212 2.00665 9.49361C1.99491 13.6116 5.35303 16.9998 9.49432 16.9969C13.6239 16.9934 16.9609 13.7038 17.0043 9.50887V9.51122Z" fill="#0971CE"></path></svg>