<svg xmlns="http://www.w3.org/2000/svg" width="75" height="100" viewBox="0 0 75 100" fill="none"><path d="M47.0424 0C48.5731 0.57663 50.0399 1.37505 50.3913 3.03188C50.6735 4.37039 51.2751 4.85831 52.5902 5.1688C54.3845 5.5941 55.5984 7.38922 55.5931 9.23652C55.5931 12.5502 55.46 15.8638 55.4467 19.1775C55.4467 21.124 55.5824 23.0704 55.6064 25.0169C55.6357 27.1799 54.8344 28.2679 52.7713 29.1133C52.6401 29.1817 52.5249 29.2762 52.4332 29.3908C52.3415 29.5053 52.2753 29.6375 52.2388 29.7786C51.5147 33.7759 49.4516 36.9017 45.9562 39.0908C45.4531 39.4065 45.3014 39.7405 45.4238 40.291C45.8045 41.9009 46.7948 42.9472 48.416 43.3542C49.9254 43.7326 51.5121 43.8761 52.9629 44.3979C54.9435 45.1076 56.8203 46.0913 58.7583 46.921C59.2525 47.1465 59.7851 47.2801 60.329 47.315C61.66 47.3567 62.9911 47.2784 64.3222 47.2941C66.6648 47.3202 68.2195 48.7787 68.2248 51.0696C68.2248 52.1133 68.4325 52.896 69.2551 53.7075C70.674 55.1034 70.2853 56.9898 70.0537 58.7119C69.9605 59.3955 69.2178 59.6903 68.4564 59.5703C68.121 59.53 67.8119 59.3719 67.5862 59.1253C67.3606 58.8787 67.2338 58.5604 67.2292 58.2292C67.168 57.5847 67.2026 56.9246 67.1973 56.2801C67.1919 55.6357 66.9097 55.2704 66.2522 55.2652C58.2525 55.1712 50.4126 55.9409 43.0519 59.3511C42.4769 59.6121 42.3171 59.9591 42.3171 60.5514C42.3331 71.8126 42.3375 83.0739 42.3304 94.3351C42.3304 94.5595 42.3544 94.7865 42.3757 95.1753C50.3035 91.7624 58.6279 90.9849 67.1334 91.0945V83.2487C66.3161 83.2487 65.5042 83.2487 64.6922 83.2487C62.102 83.2252 60.699 81.8606 60.6831 79.3166C60.6698 78.0799 60.6618 76.8431 60.6831 75.6064C60.7363 72.5249 62.7568 70.5732 65.9008 70.5419C67.1866 70.5419 67.1866 70.5419 67.1866 69.2582C67.1866 67.9745 67.1866 66.649 67.1866 65.3444C67.1999 64.2225 67.7962 63.5467 68.7173 63.5624C69.6384 63.578 70.2534 64.2173 70.1415 65.2949C70.0138 66.516 70.5116 67.1448 71.5738 67.7162C73.8871 68.9582 75.0878 70.9072 74.9493 73.5634C74.9065 74.3456 74.9065 75.1294 74.9493 75.9116C75.157 79.4314 73.6635 81.8684 70.1708 83.1104C70.1708 85.503 70.1708 87.9087 70.1708 90.3143C70.1708 92.9418 68.9276 94.1081 66.2336 94.0455C59.3813 93.8889 52.6408 94.5491 46.1586 96.8738C44.5526 97.4831 42.9853 98.1862 41.4653 98.9794C38.7393 100.334 36.0505 100.368 33.3751 98.9168C28.3038 96.1589 22.7799 94.8622 17.0537 94.3586C14.1493 94.0977 11.221 94.1185 8.3033 94.0559C6.05647 94.0089 4.77334 92.8087 4.76269 90.6092C4.76269 88.107 4.76269 85.6021 4.76269 83.0973C2.34549 82.2754 0.532586 80.8039 0.202484 78.333C-0.0601717 76.1405 -0.0673212 73.9258 0.181183 71.7317C0.394152 69.6444 1.99675 68.392 3.7777 67.4579C4.52309 67.0691 4.79728 66.6203 4.78397 65.7906C4.73073 62.6987 4.78397 59.6042 4.75203 56.515C4.73872 55.1217 5.16467 53.9788 6.2801 53.0734C6.51332 52.8235 6.6564 52.5054 6.68739 52.1681C6.75927 51.7245 6.68739 51.2601 6.72466 50.8061C6.86309 48.7813 8.32193 47.3541 10.4037 47.2993C11.8652 47.2602 13.332 47.3358 14.7855 47.3332C15.1425 47.3618 15.5008 47.297 15.8238 47.1454C18.8985 45.1441 22.322 44.1187 25.9212 43.4925C28.2612 43.0881 29.5496 41.6426 29.5869 39.5396C29.5805 39.3419 29.5333 39.1475 29.4482 38.9682C29.3631 38.7888 29.2418 38.6282 29.0917 38.4959C26.2624 36.4291 24.3622 33.3665 23.7915 29.9535C23.6956 29.4316 23.4507 29.2881 22.9928 29.1576C20.6608 28.4871 19.3324 26.7781 19.3404 24.4089C19.3404 23.0495 19.1834 21.6093 19.5747 20.349C20.0139 18.9453 20.4053 17.6042 20.3733 16.1248C20.352 15.3107 20.9377 14.8202 21.7976 14.7993C22.6574 14.7784 23.1286 15.2742 23.307 16.0674C23.3211 16.1641 23.3274 16.2619 23.3256 16.3596C23.472 18.8879 23.472 18.8879 26.1262 19.5115C26.1448 19.1593 26.1741 18.8279 26.1821 18.4939C26.206 17.1893 26.1474 15.8847 26.2619 14.5932C26.4216 12.7302 27.4998 11.4622 29.2674 10.8151C31.0351 10.168 32.7282 10.5072 34.1764 11.7622C35.1694 12.6259 36.0691 13.5886 37.126 14.3714C39.9452 16.4587 43.0945 17.2624 46.6031 16.4927C48.0966 16.1639 49.2439 16.6753 50.1198 17.9173C50.4074 18.3404 50.8224 18.6651 51.3071 18.8461C51.9886 19.0497 52.6062 18.7679 52.6142 17.9486C52.6381 15.0524 52.6461 12.1562 52.6142 9.26C52.6009 8.41463 52.0525 7.91366 51.174 7.77277C48.8713 7.40487 48.1498 6.70822 47.7585 4.5139C47.5615 3.4076 47.0184 2.91968 45.8711 2.91708C41.1538 2.91708 36.4392 2.87533 31.7246 2.93273C28.0296 2.9797 24.7844 5.50538 23.701 9.03039C23.2271 10.5724 22.6068 11.0786 21.5926 10.7525C20.5783 10.4263 20.3467 9.59398 20.8525 8.11718C22.314 3.81985 25.3568 1.21066 29.8611 0.198301C30.0794 0.148726 30.2897 0.0652296 30.5027 0H47.0424ZM32.6164 95.204V63.0484C32.6164 59.4581 32.6164 59.4529 29.1157 58.1822C22.7027 55.8601 16.0314 55.1921 9.25101 55.2521C7.89865 55.2521 7.75223 55.4087 7.74957 56.7133C7.74957 60.9114 7.77886 65.1096 7.72562 69.3078C7.72562 70.2862 7.96521 70.5837 8.99013 70.568C12.198 70.5263 14.2079 72.5145 14.2584 75.6559C14.2771 76.9266 14.2824 78.1947 14.2584 79.4653C14.2132 81.8293 12.7969 83.2095 10.3984 83.2487C9.5465 83.2487 8.69463 83.2487 7.82678 83.2487V91.0971C16.3056 90.9901 24.5954 91.7494 32.6164 95.204ZM22.3246 21.4214V23.8584C22.3246 25.8283 22.7905 26.2954 24.8244 26.3919C25.9451 26.4441 26.4216 26.8981 26.5468 27.994C26.576 28.2836 26.6027 28.5758 26.6426 28.8654C27.4199 34.5665 32.3129 38.6186 38.2734 38.4985C41.074 38.465 43.762 37.4125 45.8153 35.5456C47.8687 33.6787 49.141 31.1305 49.385 28.3958C49.5501 26.6033 49.6965 26.4545 51.5147 26.3084C52.1057 26.2641 52.5796 26.084 52.6035 25.4239C52.6302 24.2263 52.6035 23.0261 52.6035 21.8284C49.984 21.8806 49.2652 21.5467 47.636 19.6811C47.4816 19.5011 47.0903 19.4541 46.8108 19.4593C45.2907 19.4906 43.752 19.7359 42.2586 19.5715C38.3133 19.1358 35.1986 17.0876 32.5392 14.314C31.895 13.6408 31.2081 13.2181 30.2604 13.5704C29.3127 13.9226 29.1317 14.7445 29.1423 15.6577C29.161 16.9623 29.1663 18.2669 29.1423 19.5715C29.113 21.9015 27.364 23.12 25.1119 22.3894C24.2307 22.0842 23.3336 21.7658 22.3246 21.4214ZM35.6059 61.4359V95.1596C35.6059 96.9365 35.8003 97.1165 37.6478 97.0617C37.8155 97.0617 37.9805 97.0382 38.1456 97.0304C39.0028 96.9808 39.3675 96.6442 39.3648 95.6945C39.3249 84.5741 39.3409 73.4512 39.3382 62.3282C39.3382 62.0125 39.3089 61.6968 39.2956 61.4359H35.6059ZM65.1554 52.1837C65.4216 50.4356 65.2326 50.1485 63.5102 50.2242C60.4621 50.3599 57.3874 50.4512 54.3792 50.8217C49.3052 51.4427 44.4415 52.7812 40.081 55.5574C38.3612 56.6532 36.5936 56.5776 34.8206 55.5574C33.5526 54.7886 32.2367 54.0984 30.8807 53.4909C24.6593 50.8817 18.0812 50.2346 11.3993 50.2138C9.6876 50.2138 9.48261 50.4747 9.80207 52.2437C10.0124 52.2646 10.2386 52.2959 10.4623 52.3089C13.5077 52.5125 16.5692 52.5699 19.5933 52.9456C25.2636 53.6292 30.7156 55.0851 35.6512 58.0439C36.8811 58.7823 38.0817 58.7693 39.3063 58.0439C44.7237 54.8059 50.7294 53.41 56.9454 52.7447C59.6475 52.4551 62.3602 52.369 65.1634 52.1837H65.1554ZM53.6817 47.8786L53.719 47.5576C51.725 47.1167 49.7258 46.6601 47.7345 46.253C47.447 46.2424 47.1647 46.33 46.9359 46.5009C40.813 50.4147 34.6902 50.3521 28.759 46.2869C28.5061 46.1132 28.1987 46.0328 27.8911 46.06C26.5902 46.2983 25.2956 46.5731 24.0071 46.8845C23.0674 47.1115 22.1436 47.4063 21.1267 47.7037C21.3051 47.8681 21.345 47.9333 21.3929 47.949C21.5527 47.9883 21.7144 48.0197 21.8774 48.0429C27.0206 48.857 31.9722 50.2164 36.3859 53.0604C37.1367 53.5457 37.8741 53.4961 38.6141 53.0186C41.8379 50.9313 45.3999 49.6476 49.1401 48.8074C50.6469 48.4656 52.1749 48.176 53.6897 47.8786H53.6817ZM4.6908 70.3541C3.62596 70.9698 3.01367 71.7683 2.99237 72.9059C2.96575 74.3044 2.9551 75.7029 2.99237 77.1014C3.00065 77.9414 3.34403 78.7447 3.94902 79.3397C4.55402 79.9346 5.37258 80.2738 6.22951 80.2846C7.58719 80.3368 8.95018 80.2846 10.3105 80.3133C10.9894 80.3264 11.2769 80.0263 11.2716 79.3792C11.2716 78.2729 11.2716 77.1667 11.2716 76.063C11.2716 74.0409 10.6806 73.4747 8.59612 73.4538C6.3493 73.4538 5.24719 72.6058 4.6908 70.3541ZM70.2454 70.3541C69.9605 71.9196 69.1805 72.9633 67.6631 73.3625C67.0988 73.5086 66.4758 73.4486 65.8822 73.4694C64.4366 73.5138 63.7285 74.1609 63.6912 75.5568C63.6566 76.8249 63.6912 78.0929 63.6912 79.361C63.6912 79.995 63.9388 80.329 64.631 80.3159C66.0259 80.2925 67.4209 80.3446 68.8105 80.2846C69.6461 80.2541 70.4379 79.9108 71.0232 79.3255C71.6085 78.7402 71.9427 77.9574 71.9571 77.138C71.9997 75.7394 71.9891 74.3409 71.9571 72.9424C71.9438 71.8074 71.3714 70.9751 70.2454 70.3541ZM44.3244 44.6197C43.6189 43.336 42.9507 42.1253 42.2346 40.8259C39.1256 41.7614 35.7866 41.6503 32.7495 40.5102L31.0005 44.1944C34.7248 47.0045 40.5308 47.1819 44.3244 44.6197Z" fill="#0971CE"></path></svg>