<svg xmlns="http://www.w3.org/2000/svg" width="68" height="100" viewBox="0 0 68 100" fill="none"><path d="M35.1697 0C36.9882 0.391379 38.8362 0.688829 40.6145 1.20806C41.9224 1.59766 43.1742 2.14737 44.3399 2.84402C45.2613 3.40388 46.3288 3.69288 47.4145 3.67635C57.2677 3.72854 63.8614 9.82362 64.847 19.6211C65.4362 25.4736 64.523 31.1668 63.1946 36.8418C63.1021 37.2449 63.1103 37.6637 63.2187 38.0629C64.5872 42.9317 61.3975 47.4299 56.2285 47.9179C55.9286 47.9466 55.4786 48.1475 55.3876 48.3771C53.6735 52.7553 50.7677 56.1734 46.4932 58.7904C47.0931 58.9026 47.4895 58.9704 47.8832 59.0513C51.562 59.7673 55.0272 61.2835 58.0203 63.4869C58.9121 64.1392 59.1237 65.0525 58.5559 65.7491C57.9881 66.4458 57.1177 66.4849 56.2446 65.8456C52.9699 63.4429 49.0769 61.9692 44.9961 61.5874C44.2248 61.5066 43.8659 61.6944 43.6061 62.4093C42.9339 64.2358 42.1492 66.0413 41.4635 67.8886C41.2946 68.3682 41.2522 68.8814 41.3403 69.3811C42.2884 74.6308 43.2633 79.877 44.2649 85.1198C44.3504 85.4497 44.3438 85.7959 44.2458 86.1225C44.1479 86.4491 43.9622 86.7443 43.7079 86.9775C41.5867 89.0649 39.487 91.1522 37.3605 93.2213C36.5008 94.0589 35.6947 94.0563 34.8403 93.2213C32.7138 91.1522 30.6194 89.0466 28.4742 86.9958C27.7993 86.3461 27.8127 85.6286 27.9627 84.8354C28.9161 79.7527 29.8883 74.6595 30.8042 69.5794C30.9064 68.9502 30.8494 68.3062 30.6382 67.7034C29.9901 65.8926 29.2161 64.1288 28.5358 62.3284C28.3215 61.7596 28.0618 61.5274 27.3868 61.5848C21.9196 62.037 16.8247 64.4682 13.1065 68.3992C9.38829 72.3301 7.31674 77.4756 7.30024 82.8211C7.30024 83.8308 7.32166 84.8406 7.28684 85.8477C7.29549 86.2266 7.14997 86.5934 6.88204 86.8681C6.6141 87.1429 6.2455 87.3032 5.85668 87.3141C5.65525 87.3233 5.454 87.2925 5.26519 87.2235C5.07637 87.1545 4.90393 87.0489 4.75837 86.9129C4.61281 86.777 4.49716 86.6136 4.41847 86.4327C4.33978 86.2518 4.29969 86.0572 4.30063 85.8608C3.76499 76.3033 7.01367 68.4235 15.2144 62.8007C18.0984 60.8368 21.3992 59.5304 24.872 58.9782C25.0648 58.9443 25.2523 58.8869 25.5898 58.806C25.3086 58.5869 25.1318 58.4303 24.9363 58.3025C21.2912 55.995 18.4993 52.6122 16.9686 48.6484C16.912 48.4166 16.7738 48.2114 16.5782 48.0684C16.3825 47.9255 16.1416 47.8537 15.8973 47.8657C14.7439 47.7855 13.6231 47.4571 12.6157 46.9041C11.6082 46.351 10.7393 45.5871 10.0715 44.6675C9.40361 43.7478 8.9535 42.6952 8.75356 41.5856C8.55362 40.4761 8.60882 39.3371 8.9152 38.2508C9.05618 37.6931 9.06624 37.1116 8.94466 36.5496C8.15994 33.0115 7.60555 29.4474 7.60555 25.8206C7.60555 25.1031 7.33773 24.8969 6.65747 24.7769C4.3954 24.4239 2.31343 23.3612 0.727898 21.7502C-0.375526 20.6309 -0.222864 19.6629 1.17516 18.9349C3.36326 17.7973 5.13356 16.1901 6.73513 14.3741C8.60988 12.2502 10.4846 10.1263 12.3835 8.03893C13.0015 7.39857 13.6725 6.80865 14.3895 6.27511C15.142 5.68543 15.9777 5.75327 16.532 6.39774C17.0864 7.04221 16.99 7.79888 16.3365 8.4851C14.0038 10.9404 11.7139 13.4426 9.3571 15.8691C7.75018 17.539 6.0388 19.1332 4.32207 20.8109C5.46566 21.5937 6.89315 21.9538 8.39563 22.0477C10.332 22.1677 10.7042 22.5695 10.6319 24.4429C10.5359 27.6761 10.8344 30.9089 11.5211 34.0735C12.7906 33.6299 14.0601 33.2177 15.2947 32.7271C15.4875 32.6489 15.6214 32.2053 15.6268 31.9444C15.6589 30.4806 15.6268 29.0169 15.6482 27.5505C15.6616 26.3346 16.0339 25.9276 17.2552 25.7449C23.3963 24.8213 29.3285 23.2558 34.8135 20.3204C37.5882 18.8358 40.0602 16.9806 42.0447 14.5489C43.0571 13.3173 44.3319 13.5365 44.9532 15.0368C46.4879 18.734 48.7429 21.9094 52.096 24.2551C53.07 24.9374 54.1127 25.5214 55.2081 25.998C56.2178 26.4364 56.6115 27.0756 56.5794 28.1167C56.5338 29.6117 56.5794 31.1068 56.5794 32.5106L60.7199 34.1622C60.9877 32.7271 61.293 31.2112 61.5234 29.6822C62.1072 25.7006 62.3268 21.7189 61.4564 17.7425C59.8655 10.4185 54.5145 6.30903 46.82 6.60126C45.6026 6.68653 44.3908 6.3744 43.3758 5.71414C39.5861 3.33194 35.3411 2.65355 30.9007 3.02667C27.6385 3.32114 24.4491 4.14114 21.4626 5.45322C20.3913 5.91243 19.5156 5.65673 19.1647 4.82701C18.8139 3.99729 19.1995 3.21975 20.2735 2.75792C23.3555 1.41547 26.6323 0.545874 29.9874 0.180035C30.2484 0.136317 30.5068 0.0788291 30.7614 0.00782727L35.1697 0ZM19.1433 45.1547C20.1985 51.5159 26.9289 59.1374 37.2266 58.5503C44.9291 58.112 53.1968 51.0619 53.0013 45.126C51.4823 46.2761 49.6383 46.9454 47.7172 47.0438C43.2874 47.2603 39.4147 44.4346 38.1908 40.179C38.1104 39.8972 37.7649 39.4954 37.5185 39.4797C36.4231 39.4015 35.3224 39.4458 34.2377 39.4458C33.0298 45.8018 25.5255 49.4834 19.1433 45.1547ZM34.2699 36.5157C35.1912 36.5157 36.1259 36.4818 37.0579 36.5157C37.7462 36.547 38.0649 36.4035 38.2738 35.6468C38.6565 34.2169 39.3931 32.9001 40.4191 31.8116C41.4451 30.7232 42.7292 29.8963 44.1591 29.4033C45.5891 28.9102 47.1213 28.7661 48.6216 28.9835C50.122 29.2009 51.5448 29.7731 52.7656 30.6502C52.9932 30.8094 53.2343 30.9503 53.5691 31.1721C53.5361 30.6716 53.5361 30.1696 53.5691 29.6692C53.6923 28.8447 53.3655 28.4194 52.5915 28.0306C50.1189 26.7848 47.9546 25.0289 46.2495 22.8852C45.0497 21.385 44.0212 19.7542 42.883 18.1391C36.1473 24.4012 27.6332 26.9243 18.7496 28.5342V31.099C24.7649 26.4807 32.9495 29.6431 34.2699 36.5157ZM36.1259 90.1347C37.7167 88.6109 39.3397 87.0845 40.9225 85.5007C41.1314 85.2894 41.1395 84.7806 41.0779 84.4388C40.5262 81.3364 39.9423 78.2419 39.3585 75.1448C39.0317 73.4045 38.6916 71.6668 38.3648 69.9682H33.8387C32.9093 74.9256 31.9853 79.8492 31.0828 84.7649C31.0585 84.8846 31.0594 85.0079 31.0857 85.1273C31.1119 85.2466 31.1629 85.3595 31.2354 85.459C32.8504 87.0401 34.5029 88.5926 36.1259 90.1347ZM18.68 38.0003C18.6856 39.627 19.3535 41.1851 20.5369 42.3327C21.7204 43.4802 23.3228 44.1236 24.9925 44.1215C26.6631 44.105 28.2597 43.4472 29.4355 42.2909C30.6114 41.1346 31.2716 39.5732 31.2729 37.9455C31.2609 36.3176 30.5874 34.7607 29.3998 33.6154C28.2122 32.4702 26.6073 31.8299 24.9363 31.8348C24.1093 31.8372 23.2909 31.9988 22.5282 32.3103C21.7656 32.6219 21.0737 33.0773 20.4922 33.6502C19.9108 34.2232 19.4514 34.9025 19.1404 35.649C18.8294 36.3956 18.6729 37.1947 18.68 38.0003ZM40.9654 37.922C40.9511 39.5497 41.6 41.1165 42.7699 42.2787C43.9397 43.4409 45.5349 44.1036 47.2056 44.1215C48.877 44.1237 50.4821 43.485 51.6739 42.3435C52.8657 41.2019 53.5484 39.6493 53.5744 38.0212C53.5781 36.3942 52.9223 34.8317 51.7498 33.6732C50.5772 32.5147 48.9826 31.854 47.3128 31.8348C46.4852 31.8265 45.6641 31.9776 44.8966 32.2794C44.1292 32.5812 43.4305 33.0278 42.8407 33.5934C42.2509 34.159 41.7816 34.8326 41.4598 35.5755C41.1379 36.3183 40.9699 37.1158 40.9654 37.922ZM40.7243 61.5874H31.4925C32.1755 63.3069 32.8075 64.9376 33.4878 66.5449C33.5563 66.6574 33.6508 66.7528 33.7638 66.8235C33.8767 66.8941 34.0051 66.9381 34.1386 66.9519C35.4349 66.9902 36.7329 66.9902 38.0327 66.9519C38.169 66.9445 38.3017 66.907 38.4209 66.8424C38.5401 66.7778 38.6427 66.6877 38.721 66.5788C39.412 64.9429 40.0521 63.286 40.7243 61.5874ZM15.742 35.7564C15.1238 35.8407 14.529 36.0435 13.9918 36.3531C13.4545 36.6627 12.9856 37.0729 12.6121 37.5601C12.2385 38.0472 11.9678 38.6017 11.8155 39.1913C11.6632 39.781 11.6323 40.3943 11.7246 40.9957C12.0192 43.0961 14.135 45.0112 15.742 44.7842V35.7564ZM56.5097 44.8521C58.6978 44.7059 60.5565 42.6342 60.5271 40.2781C60.5056 38.0081 58.7059 35.9469 56.5097 35.8425V44.8521Z" fill="#0971CE"></path><path d="M52.9369 97.0049V89.6313C52.9369 88.3946 52.9369 87.1578 52.9369 85.9211C52.953 84.8096 53.4726 84.199 54.3831 84.1755C55.2937 84.152 55.9338 84.7939 55.9392 85.9341C55.9579 89.4148 55.9392 92.8955 55.9392 96.3709C55.9392 96.5614 55.966 96.7518 55.9874 96.9997H64.8603V95.9978C64.8603 91.737 64.8282 87.4735 64.8603 83.2127C64.9566 78.5251 63.4584 73.9382 60.5993 70.1668C59.911 69.2457 59.9646 68.3795 60.7091 67.8446C61.4536 67.3097 62.316 67.508 63.0124 68.4264C65.9584 72.3272 67.6912 76.6924 67.8037 81.5402C67.9349 87.1004 67.8599 92.6658 67.8572 98.2391C67.8572 99.528 67.3216 100 65.9155 100H6.52882C4.72103 100 4.30591 99.588 4.30591 97.8086C4.30591 95.8882 4.30591 93.9678 4.30591 92.0475C4.30591 90.9255 4.90315 90.2419 5.82445 90.2497C6.74576 90.2576 7.30551 90.9333 7.31086 92.0762C7.31086 93.6991 7.31086 95.322 7.31086 97.0102H16.2909V95.9926C16.2909 92.6737 16.2909 89.3548 16.2909 86.0359C16.2909 84.8461 16.7971 84.2094 17.7291 84.186C18.7067 84.1573 19.2932 84.8278 19.2959 86.0333C19.2959 89.3182 19.2959 92.6058 19.2959 95.8908V97.0154L52.9369 97.0049Z" fill="#0971CE"></path><path d="M35.443 50.9832C34.5626 50.9573 33.7005 50.7315 32.9254 50.3239C32.1503 49.9162 31.4836 49.3379 30.9784 48.6349C30.2633 47.6669 30.3249 46.7589 31.0882 46.2188C31.8515 45.6787 32.6389 45.8822 33.4049 46.9103C34.5806 48.4914 37.6498 48.4758 38.8336 46.8711C39.554 45.8979 40.2986 45.6709 41.0887 46.1823C41.8787 46.6937 41.9644 47.5991 41.2895 48.5828C40.2477 50.1013 38.3381 50.9858 35.443 50.9832Z" fill="#0971CE"></path><path d="M28.4019 37.9454C28.4019 38.6603 28.426 39.3726 28.4019 40.085C28.3644 40.9225 27.8663 41.3896 27.0307 41.4835C26.8379 41.5072 26.6421 41.4914 26.4559 41.4373C26.2697 41.3831 26.0972 41.2918 25.9492 41.169C25.8013 41.0463 25.6813 40.8948 25.5968 40.7243C25.5123 40.5539 25.4652 40.3681 25.4586 40.1789C25.3836 38.723 25.3863 37.2592 25.4586 35.8033C25.4665 35.6154 25.5123 35.431 25.5935 35.2604C25.6747 35.0899 25.7896 34.9366 25.9316 34.8094C26.0737 34.6822 26.2401 34.5835 26.4213 34.519C26.6025 34.4545 26.795 34.4254 26.9878 34.4334C27.7913 34.4621 28.3484 35.0388 28.4233 35.8972C28.4233 35.9633 28.4233 36.0285 28.4233 36.0929V37.9402L28.4019 37.9454Z" fill="#0971CE"></path><path d="M46.796 38.0288C46.796 38.7098 46.8281 39.3934 46.796 40.0744C46.7924 40.4532 46.6353 40.8153 46.3589 41.0817C46.0824 41.348 45.7091 41.4971 45.3203 41.4964C45.1273 41.5031 44.935 41.472 44.7545 41.4052C44.574 41.3384 44.4091 41.2371 44.2694 41.1073C44.1296 40.9775 44.0179 40.8218 43.9409 40.6494C43.8638 40.4769 43.8228 40.2912 43.8205 40.1031C43.774 38.675 43.774 37.2469 43.8205 35.8188C43.8267 35.6308 43.8709 35.4458 43.9507 35.2745C44.0304 35.1031 44.1441 34.9488 44.2851 34.8203C44.4262 34.6919 44.5919 34.5918 44.7728 34.5258C44.9536 34.4599 45.146 34.4293 45.339 34.4359C45.7272 34.4468 46.0959 34.6041 46.3672 34.8748C46.6386 35.1455 46.7914 35.5083 46.7933 35.8867C46.8254 36.599 46.796 37.3139 46.796 38.0288Z" fill="#0971CE"></path></svg>