<svg xmlns="http://www.w3.org/2000/svg" width="95" height="100" viewBox="0 0 95 100" fill="none"><path d="M48.4655 0C49.6088 0.323574 50.7894 0.553206 51.8872 0.986378C57.8757 3.34794 61.1825 9.51411 59.863 15.7533C58.5728 21.8491 52.9182 26.126 46.3501 25.9851C40.1532 25.852 34.7096 21.1523 33.7053 15.0671C33.157 11.67 34.006 8.19902 36.0671 5.41114C38.1282 2.62325 41.2341 0.744714 44.7074 0.18527C44.8978 0.14123 45.0844 0.082772 45.2656 0.0104321L48.4655 0ZM57.1545 12.862C57.1346 11.5269 56.843 10.209 56.2967 8.98502C55.7504 7.76104 54.9603 6.65545 53.9725 5.73264C52.9846 4.80982 51.8187 4.08821 50.5427 3.60981C49.2666 3.13141 47.9059 2.90579 46.5397 2.94608C41.0026 3.08177 36.4484 7.70575 36.5446 13.0969C36.559 14.4416 36.8489 15.7699 37.397 17.0034C37.9452 18.237 38.7406 19.3508 39.7363 20.2793C40.7321 21.2078 41.908 21.9322 43.1948 22.4097C44.4816 22.8873 45.8532 23.1083 47.2288 23.0598C52.7473 22.9242 57.2881 18.2636 57.1545 12.862Z" fill="#0971CE"></path><path d="M52.8756 82.2345C51.7217 84.7318 49.9133 86.2192 47.1702 86.3314C44.1198 86.4567 42.0818 84.9327 40.805 82.185C38.0752 83.307 35.2893 84.2308 32.7197 85.5564C29.079 87.4274 27.2307 90.564 27.049 94.5904C26.9956 95.7907 27.049 96.9989 27.025 98.2019C27.0063 99.3344 26.4213 100.008 25.4998 99.9998C24.5783 99.992 23.9934 99.337 24.0441 98.1732C24.1429 95.9708 24.0441 93.711 24.5142 91.5843C25.4838 87.2865 28.2377 84.2282 32.3511 82.4329C34.7551 81.3891 37.2071 80.4679 39.6538 79.539C40.2628 79.3093 40.4845 79.0353 40.5352 78.3647C40.6367 77.0234 40.1933 76.2197 39.0662 75.3195C37.4635 74.0434 35.9624 73.4667 33.8416 73.2971C25.3743 72.6134 20.3928 64.284 23.6354 56.6122C24.2685 55.1092 24.9469 53.627 25.6147 52.137C26.5421 50.1254 27.258 48.0271 27.7515 45.8743C30.9328 31.4465 49.2002 25.7996 60.3519 35.7443C60.7078 36.0394 61.0367 36.3642 61.3348 36.715C61.5735 36.975 61.6982 37.3161 61.6823 37.665C61.6663 38.0139 61.5108 38.3427 61.2493 38.5808C60.6644 39.1836 59.9485 39.2514 59.2727 38.7452C58.6397 38.2729 58.0921 37.6884 57.4698 37.203C47.512 29.4268 32.4446 35.165 30.4466 47.4634C30.2306 48.6459 29.8803 49.8012 29.4023 50.9079C28.4594 53.199 27.3829 55.4353 26.4107 57.716C23.9052 63.5951 27.7622 69.8579 34.2208 70.4711C34.3838 70.4867 34.5494 70.4711 34.7257 70.4711C32.7598 64.8764 33.7454 59.1277 33.7107 53.4548C33.6947 50.4278 35.0195 47.7139 36.948 45.3184C37.9123 44.1259 39.352 43.9172 40.5593 44.9061C43.5428 47.3643 46.9992 48.2984 50.8349 48.2463C53.0331 48.2202 55.2314 48.3402 57.4297 48.4133C59.2834 48.4759 60.4854 49.6423 60.4934 51.4533C60.5148 56.1086 60.5762 60.7665 60.4453 65.4165C60.3973 67.1023 59.847 68.7749 59.5318 70.4345C63.2713 70.6616 67.326 67.4676 68.2635 63.389C68.7124 61.5031 68.525 59.5259 67.7293 57.7525C66.7971 55.6337 65.7955 53.5409 64.9327 51.3933C64.3985 50.0416 64.0459 48.6142 63.6186 47.2181C63.266 46.07 62.9428 44.9114 62.5688 43.7684C62.2323 42.7429 62.4967 41.9418 63.3247 41.6339C64.1528 41.326 64.9274 41.6991 65.3574 42.6985C65.6245 43.33 65.9397 43.9667 66.0412 44.6295C66.693 48.8047 68.7123 52.4971 70.3737 56.3199C71.1261 57.9912 71.5075 59.7993 71.4928 61.625C71.378 68.5192 65.1304 74.0017 58.0975 73.3989C57.6662 73.4101 57.2513 73.5627 56.9195 73.8321C56.0194 74.4975 55.2528 75.3769 54.2832 75.8988C53.3136 76.4207 53.2148 77.0156 53.18 77.9263C53.1346 78.8997 53.4472 79.3537 54.3927 79.6799C56.4601 80.4001 58.4794 81.2456 60.5175 82.0467C60.8246 82.1693 61.1345 82.292 61.4336 82.4355C62.3551 82.8765 62.6997 83.6306 62.3498 84.4135C61.9999 85.1963 61.1719 85.4807 60.245 85.118C58.2043 84.3352 56.1743 83.5106 54.139 82.7069C53.741 82.5555 53.3403 82.4094 52.8756 82.2345ZM39.0635 47.4452C37.5891 49.4283 36.7103 51.5237 36.6595 53.8514C36.5794 57.7212 36.526 61.5989 36.6595 65.4661C36.8679 71.6088 42.9525 76.1493 49.1067 74.8811C53.9547 73.8816 57.387 69.9648 57.4751 65.1373C57.5552 60.7143 57.4992 56.286 57.4992 51.8604C57.4738 51.6278 57.4346 51.3969 57.3816 51.1689C55.2448 51.1689 53.1079 51.1428 50.9924 51.1689C46.6359 51.2341 42.6053 50.3025 39.0635 47.4452ZM43.5455 77.8167C43.5455 78.657 43.4494 79.6433 43.5642 80.5958C43.6508 81.3829 44.0357 82.1099 44.6431 82.6338C45.2506 83.1578 46.0368 83.4407 46.847 83.4271C47.6561 83.4474 48.4434 83.1696 49.0526 82.6489C49.6617 82.1283 50.0481 81.4028 50.135 80.6167C50.2499 79.6929 50.1564 78.7457 50.1564 77.8219L43.5455 77.8167Z" fill="#0971CE"></path><path d="M10.419 45.7445V38.5606C8.15928 37.6682 7.74793 37.0523 7.74793 34.589C7.74793 34.1349 7.72924 33.6783 7.74793 33.2242C7.84409 31.4185 9.04072 30.2886 10.8971 30.2547C11.629 30.2547 12.3635 30.239 13.0954 30.2547C14.8957 30.2938 16.0816 31.4054 16.1938 33.1694C16.2286 33.72 16.2072 34.2759 16.1938 34.8291C16.1938 37.0236 15.6596 37.7725 13.5441 38.5293V45.7549L13.8486 45.9741C13.8855 45.8196 13.931 45.6671 13.9849 45.5174C14.3054 44.7529 14.5378 43.9335 14.9758 43.2394C16.4796 40.8595 18.093 38.5423 19.5968 36.1677C20.7787 34.2904 21.1924 32.0466 20.7552 29.8844C20.318 27.7222 19.0621 25.8007 17.2382 24.5034C13.5602 21.8757 8.08983 22.4158 5.16235 25.7116C3.70662 27.3529 3.05755 29.297 3.0255 31.4524C3.0255 31.7447 3.05221 32.0395 3.0255 32.3318C2.95338 33.2295 2.323 33.8192 1.48162 33.7931C0.680297 33.7696 0.130059 33.2086 0.047256 32.3344C-0.201338 29.6496 0.536466 26.9661 2.12855 24.7643C3.72063 22.5625 6.06301 20.9862 8.73623 20.3178C13.7124 19.0627 18.7287 20.7823 21.6642 24.7539C24.5997 28.7255 24.6745 33.874 21.8885 38.1274C20.7213 39.9071 19.6475 41.752 18.3547 43.4429C17.0619 45.1338 16.72 47.0675 16.6639 49.0846C16.6025 51.3131 15.2429 53.0353 13.1408 53.4711C9.85006 54.1495 7.35262 52.1298 7.26447 48.8497C7.21105 47.0544 6.97867 45.2878 5.77936 43.7378C4.67888 42.3182 3.77073 40.7526 2.79312 39.2391C2.1761 38.2866 2.30164 37.4124 3.0896 36.9401C3.87756 36.4678 4.66286 36.6974 5.27987 37.6238C6.71424 39.7766 8.14859 41.9294 9.52953 44.1135C9.84738 44.6172 9.95422 45.2487 10.1599 45.8201L10.419 45.7445ZM10.8063 33.219V35.4971H13.1435V33.219H10.8063ZM13.5869 48.8106H10.3816C10.2694 50.0814 10.7555 50.6033 11.9842 50.6059C13.2129 50.6085 13.683 50.0866 13.5869 48.8106Z" fill="#0971CE"></path><path d="M72.0405 41.8268C72.3236 40.222 72.6174 38.3901 72.978 36.5713C73.0495 36.3256 73.0456 36.0649 72.9667 35.8213C72.8879 35.5778 72.7377 35.3622 72.5346 35.2013C71.2899 34.0688 70.0959 32.8867 68.8699 31.7386C68.0953 31.0131 67.6386 30.199 68.0232 29.1291C68.4078 28.0592 69.2118 27.6522 70.2989 27.5217C72.0164 27.3103 73.7312 27.0676 75.4327 26.7571C75.852 26.6516 76.2112 26.3879 76.4317 26.0238C77.249 24.5338 77.9943 23.0073 78.7448 21.486C79.2176 20.5283 79.9041 19.902 81.0526 19.9203C82.1531 19.9386 82.8075 20.5622 83.2616 21.486C84.0122 23.0099 84.8055 24.513 85.5427 26.0421C85.632 26.2636 85.7859 26.4546 85.9853 26.5915C86.1848 26.7283 86.4209 26.805 86.6645 26.8119C88.4141 27.0128 90.1556 27.3051 91.9025 27.5452C92.9122 27.6861 93.6734 28.161 93.9859 29.1239C94.2984 30.0868 94.026 30.9114 93.2781 31.6107C92.0521 32.7589 90.8741 33.9592 89.6134 35.0709C89.0364 35.5771 88.9189 36.0729 89.0605 36.7775C89.381 38.3718 89.608 39.9845 89.9259 41.5789C90.1209 42.5757 89.8885 43.4055 89.0792 44.0161C88.2218 44.6711 87.3056 44.6319 86.3654 44.1388C84.8402 43.3403 83.2883 42.594 81.7818 41.7589C81.5521 41.609 81.2821 41.529 81.0059 41.529C80.7297 41.529 80.4596 41.609 80.2299 41.7589C78.6594 42.607 77.0727 43.4342 75.4568 44.204C73.7206 45.0312 71.971 43.9065 72.0405 41.8268ZM90.161 30.2564C88.8468 30.0685 87.5406 29.7971 86.2211 29.7162C84.5758 29.6145 83.5047 28.9334 82.8796 27.4121C82.3695 26.1726 81.6883 24.9983 81.0099 23.6492C80.3181 25.0114 79.6396 26.1413 79.1588 27.3442C78.5365 28.9099 77.4547 29.6171 75.7666 29.7189C74.4551 29.7971 73.157 30.0842 71.8855 30.2747C72.8979 31.3185 73.8114 32.3936 74.8718 33.3095C76.007 34.2932 76.3061 35.397 75.9829 36.8009C75.6758 38.1422 75.4968 39.5122 75.2351 41.0257C76.6347 40.3107 77.9061 39.7444 79.0894 39.032C80.3982 38.2492 81.5895 38.2231 82.9064 39.0164C84.0763 39.7209 85.3397 40.2767 86.7714 41.0048C86.4722 39.2617 86.2372 37.7586 85.9433 36.2712C85.8327 35.8119 85.8504 35.332 85.9947 34.8816C86.1389 34.4313 86.4044 34.0271 86.7634 33.7113C87.8906 32.6154 88.9723 31.4698 90.161 30.2564Z" fill="#0971CE"></path><path d="M69.3722 21.8132C67.2354 20.8268 65.192 19.89 63.1593 18.9428C62.8199 18.8165 62.5054 18.6338 62.2298 18.4026C61.9818 18.1774 61.8288 17.8699 61.8006 17.5402C61.7725 17.2106 61.8712 16.8826 62.0775 16.6203C62.5583 15.9158 63.2769 15.8036 64.0167 16.1428C66.0895 17.0926 68.1435 18.0816 70.2029 19.0628C70.5261 19.2167 70.8306 19.4125 71.1992 19.6186C71.2874 19.4177 71.3622 19.282 71.4076 19.1359C71.648 18.3321 72.2089 17.9172 73.0423 18.0268C73.8756 18.1364 74.3164 18.6922 74.3271 19.5194C74.3413 20.4954 74.3413 21.4705 74.3271 22.4447C74.3404 22.7742 74.2352 23.0978 74.0298 23.3595C73.8244 23.6212 73.5317 23.8044 73.2025 23.8773C72.3424 24.1382 71.4797 24.3652 70.6276 24.634C69.8664 24.8767 69.228 24.7305 68.7819 24.086C68.3359 23.4415 68.448 22.7943 68.9956 22.2281C69.0757 22.142 69.1452 22.0558 69.3722 21.8132Z" fill="#0971CE"></path><path d="M28.2054 19.8837C26.755 20.6666 25.4302 21.3972 24.092 22.1018C23.0957 22.6237 22.1314 22.3236 21.8002 21.392C21.5064 20.5779 21.8804 19.9907 22.5748 19.5941C23.9104 18.8321 25.2886 18.1067 26.5814 17.4074C26.5494 16.8359 26.4078 16.2879 26.5147 15.7921C26.6749 15.051 27.5243 14.6726 28.3524 14.9127C29.2418 15.1737 30.1206 15.4711 30.9887 15.7947C31.9396 16.147 32.2681 16.7419 32.0384 17.7074C31.8221 18.6234 31.5416 19.5341 31.2905 20.4291C30.978 21.5668 30.4224 22.0809 29.5971 22.0078C28.6916 21.927 28.2589 21.3216 28.2054 19.8837Z" fill="#0971CE"></path><path d="M69.6791 95.8356C69.6791 96.9107 69.7005 97.6909 69.6791 98.4711C69.6471 99.3844 69.0408 99.995 68.2127 100C67.3847 100.005 66.7463 99.4105 66.7062 98.4946C66.6608 97.4508 66.6689 96.407 66.7062 95.3632C66.7754 93.0708 66.1116 90.8142 64.8071 88.9074C64.2035 88.0045 64.313 87.1591 65.0422 86.6685C65.8168 86.1466 66.6635 86.3815 67.3126 87.3235C69.048 89.825 69.8807 92.8201 69.6791 95.8356Z" fill="#0971CE"></path><path d="M45.2094 14.8926L50.661 9.52231C50.8621 9.30539 51.079 9.10306 51.3101 8.91692C51.9779 8.42112 52.667 8.41591 53.3027 8.96389C53.4481 9.08794 53.566 9.23972 53.6491 9.4099C53.7322 9.58008 53.7788 9.76507 53.7861 9.9535C53.7933 10.1419 53.7611 10.3298 53.6913 10.5056C53.6215 10.6814 53.5156 10.8414 53.3802 10.9758C52.6243 11.7952 51.8016 12.5415 51.003 13.3243C49.5232 14.7726 48.0514 16.226 46.5583 17.6612C45.6314 18.5485 44.9236 18.5302 43.9861 17.6378C43.3904 17.0715 42.7921 16.5079 42.2285 15.9129C41.5607 15.2109 41.5447 14.4359 42.1377 13.8253C42.7307 13.2147 43.6281 13.2173 44.352 13.8775C44.6595 14.1978 44.9459 14.5369 45.2094 14.8926Z" fill="#0971CE"></path></svg>